<svg xmlns="http://www.w3.org/2000/svg" viewBox="0 0 64 64" id="castle"><polygon fill="#ceccd9" points="47.387 33.708 16.613 33.708 16.447 33.721 19.304 60.37 44.696 60.37 47.553 33.721 47.387 33.708"></polygon><polygon fill="#918291" points="46.391 13.632 46.391 8.492 40.223 8.492 40.223 13.632 35.084 13.632 35.084 8.492 28.916 8.492 28.916 13.632 23.777 13.632 23.777 8.492 17.609 8.492 17.609 13.632 15.43 13.632 15.43 36.256 48.58 36.256 48.58 13.632 46.391 13.632"></polygon><polygon fill="#bbb5c7" points="44.458 36.246 42.403 36.246 42.536 36.256 40.223 57.832 42.279 57.832 44.592 36.256 44.458 36.246"></polygon><polygon fill="#bbb5c7" points="19.714 36.246 21.77 36.246 21.636 36.256 23.949 57.832 21.893 57.832 19.58 36.256 19.714 36.246"></polygon><path fill="#918291" d="M38.168,48.581v9.251H25.832V48.581A6.173,6.173,0,0,1,32,42.414a6.178,6.178,0,0,1,6.168,6.167Z"></path><path fill="#857485" d="M29.222,49.609a6.174,6.174,0,0,1,6.168-6.168h.018a6.167,6.167,0,0,0-9.576,5.139v9.251h3.39Z"></path><rect width="4.112" height="4.112" x="34.056" y="26.995" fill="#ceccd9"></rect><rect width="4.112" height="4.112" x="34.056" y="18.771" fill="#ceccd9"></rect><rect width="4.112" height="4.112" x="25.832" y="26.995" fill="#ceccd9"></rect><rect width="4.112" height="4.112" x="25.832" y="18.771" fill="#ceccd9"></rect><polygon fill="#ee6161" points="19.315 21.285 11.441 .269 3.686 20.949 3.686 24.954 19.315 24.954 19.315 21.285"></polygon><polygon fill="#ee6161" points="44.857 21.285 52.731 .269 60.486 20.949 60.486 24.954 44.857 24.954 44.857 21.285"></polygon><path fill="#ceccd9" d="M62.869,58.136l-.8-7.5-.226-2.056L60.2,33.158,59.97,31.1l-.216-2.052h1.028A2.062,2.062,0,0,0,62.838,27V16.715H58.726v6.168H54.614V16.715H50.5v6.168H46.391V16.715H42.279V27a2.062,2.062,0,0,0,2.056,2.055h1.028l-1.984,18.5-.216,2.056-.226,2.055-.216,2.056-.442,4.112H21.721l-.987-9.251-.226-2.056L18.637,29.05h1.028A2.062,2.062,0,0,0,21.721,27V16.715H17.609v6.168H13.5V16.715H9.386v6.168H5.274V16.715H1.162V27A2.062,2.062,0,0,0,3.218,29.05H4.246L4.03,31.1,3.8,33.158,2.159,48.577l-.226,2.056-.8,7.5a2.032,2.032,0,0,0-1,1.748V64H63.866V59.884A2.032,2.032,0,0,0,62.869,58.136Z"></path><path fill="#ceccd9" d="M63.866,59.888V64H.134V59.888A2.062,2.062,0,0,1,2.19,57.832H61.81A2.062,2.062,0,0,1,63.866,59.888Z"></path><path fill="#bbb5c7" d="M4.77,59.36V57.828l-2.58,0A2.062,2.062,0,0,0,.134,59.888V64H63.866V61.421l-57.04-.005A2.056,2.056,0,0,1,4.77,59.36Z"></path><rect width="8.223" height="8.223" x="48.447" y="37.274" fill="#918291" rx="2.056"></rect><path fill="#bbb5c7" d="M56.143,29.046l.329,3.084,1.87,17.475.884,8.223h2.581a1.965,1.965,0,0,1,1.058.308l-.915-8.531L60.08,32.13l-.329-3.084Z"></path><rect width="8.223" height="8.223" x="7.33" y="37.274" fill="#918291" rx="2.056"></rect><path fill="#918291" d="M60.2 33.158H55.642a1.028 1.028 0 0 1 0-2.056H59.97zM47.419 48.577a1.025 1.025 0 0 1-1.028 1.028H43.163l.216-2.056h3.012A1.031 1.031 0 0 1 47.419 48.577zM48.447 52.688a1.024 1.024 0 0 1-1.028 1.028h-4.7l.216-2.056h4.482A1.032 1.032 0 0 1 48.447 52.688zM62.067 50.633H58.726a1.028 1.028 0 1 1 0-2.056h3.115zM51.531 34.19H49.475a1.028 1.028 0 0 1 0-2.056h2.056a1.028 1.028 0 0 1 0 2.056zM20.734 48.577H17.609a1.028 1.028 0 0 1 0-2.056h2.9zM14.525 34.19H12.469a1.028 1.028 0 0 1 0-2.056h2.056a1.028 1.028 0 1 1 0 2.056zM12.469 54.749H8.358a1.028 1.028 0 0 1 0-2.056h4.111a1.028 1.028 0 1 1 0 2.056z"></path><path fill="#bbb5c7" d="M7.854,29.046,7.525,32.13,5.654,49.605,4.77,57.828H2.19a1.971,1.971,0,0,0-1.059.308l.915-8.531L3.917,32.13l.329-3.084Z"></path><path fill="#918291" d="M6.3 49.605a1.025 1.025 0 0 1-1.028 1.028H1.933l.226-2.056H5.274A1.031 1.031 0 0 1 6.3 49.605zM9.386 32.13a1.024 1.024 0 0 1-1.028 1.028H3.8L4.03 31.1H8.358A1.031 1.031 0 0 1 9.386 32.13z"></path><path fill="#bbb5c7" d="M20.715 25.827H5.3A2.062 2.062 0 0 1 3.24 23.771V16.715H1.162V27A2.062 2.062 0 0 0 3.218 29.05H19.665A2.062 2.062 0 0 0 21.721 27V25.827zM61.832 25.827H46.413a2.062 2.062 0 0 1-2.056-2.056V16.715H42.279V27a2.062 2.062 0 0 0 2.056 2.055H60.782A2.062 2.062 0 0 0 62.838 27V25.827z"></path></svg>