<svg xmlns="http://www.w3.org/2000/svg" viewBox="0 0 512 512" id="excalibur"><path d="M484.5,497H443.37L425.26,386.52a27.56,27.56,0,0,0-5.77-12.86l-28-34.55a27.42,27.42,0,0,0-31.32-8.32l-21.65,8.41L291.74,296,287.57,177l39.7-11.8a7.5,7.5,0,0,0,5.37-7.15l.09-20.24a7.51,7.51,0,0,0-2.19-5.34,7.67,7.67,0,0,0-5.34-2.2l-42.45.21L281,52.89a32.8,32.8,0,0,0,7.34-20.58A32.18,32.18,0,0,0,278.91,9.2,31.07,31.07,0,0,0,256.78,0h-.16c-17.5.09-31.81,14.66-31.89,32.48h0a32.23,32.23,0,0,0,7.15,20.57l-2.47,77.73-42.58.21a7.5,7.5,0,0,0-7.47,7.46l-.09,20.24a7.5,7.5,0,0,0,5.42,7.25l39.47,11.36-6.32,142.43a7.94,7.94,0,0,0,.14,1.77L130,361.93a27.5,27.5,0,0,0-14.83,17L79.44,497H27.5a7.5,7.5,0,0,0,0,15h457a7.5,7.5,0,0,0,0-15ZM256.69,15h.08a16.22,16.22,0,0,1,11.54,4.8,17.33,17.33,0,0,1,5,12.44c0,9.63-7.65,17.51-17,17.55h-.08A16.22,16.22,0,0,1,244.77,45a17.33,17.33,0,0,1-5-12.44C239.77,22.92,247.38,15.05,256.69,15Zm11.06,115.59-23.33.12,2.14-67.47a31.51,31.51,0,0,0,9.74,1.55h.16a31.32,31.32,0,0,0,9.77-1.62Zm-73.46,22.5,0-7.14,81.09-.39h0l42.28-.21,0,7.1-61.83,18.37Zm82,128.93a27.29,27.29,0,0,0-13.34-4.85l.43-92.93,9.39-2.79Zm-27.91-97.75-.44,95.85a27.31,27.31,0,0,0-11.4,11l-2.57,4.59L239,181.58ZM178.48,497H95.11l34.46-113.71a12.24,12.24,0,0,1,1.34-2.94l19.57,35.47a7.5,7.5,0,0,0,13.14-7.25l-20.06-36.35,64.06-29.45-13.7,24.5a27.47,27.47,0,0,0,2.29,30.3l5.46,7A12.49,12.49,0,0,1,203.73,416Zm15.71,0,22.61-72.54,4.13,5.06A7.5,7.5,0,1,0,232.55,420l-15.88-19.49a27.47,27.47,0,0,0-3.16-5.16l-5.46-7a12.5,12.5,0,0,1-1-13.77l42.57-76.13A12.5,12.5,0,0,1,269,295.38l54.71,50.54-22.5,31.25-11.4-11.4a7.5,7.5,0,0,0-10.6,10.6L308.81,406l8.92,91Zm138.61,0-9.34-95.23a7.53,7.53,0,0,0-2.17-4.59l-9.35-9.28L334.22,357l.1,0,31.28-12.16a12.48,12.48,0,0,1,14.24,3.78l22.06,27.23-22.8,41.77a7.48,7.48,0,0,0,3,10.17,7.37,7.37,0,0,0,3.58.92,7.48,7.48,0,0,0,6.59-3.91l18.51-33.9L428.17,497Z"></path></svg>