<svg xmlns="http://www.w3.org/2000/svg" enable-background="new 0 0 100 100" viewBox="0 0 100 100" id="milan-cathedral"><path d="M90,89h-1V48c0-0.11-0.02-0.21-0.05-0.32L85,35.84V30c0-0.55-0.45-1-1-1s-1,0.45-1,1v5.84l-3.95,11.85
	C79.02,47.79,79,47.89,79,48v4.28l-10-8.13V28c0-0.11-0.02-0.21-0.05-0.32L65,15.84V10c0-0.55-0.45-1-1-1s-1,0.45-1,1v5.84
	l-3.95,11.85C59.02,27.79,59,27.89,59,28v8.03l-8.37-6.8c-0.37-0.3-0.89-0.3-1.26,0L41,36.03V28c0-0.11-0.02-0.21-0.05-0.32
	L37,15.84V10c0-0.55-0.45-1-1-1s-1,0.45-1,1v5.84l-3.95,11.85C31.02,27.79,31,27.89,31,28v16.15l-10,8.13V48
	c0-0.11-0.02-0.21-0.05-0.32L17,35.84V30c0-0.55-0.45-1-1-1s-1,0.45-1,1v5.84l-3.95,11.85C11.02,47.79,11,47.89,11,48v41h-1
	c-0.55,0-1,0.45-1,1s0.45,1,1,1h2h8h12h8h6h8h6h8h12h8h2c0.55,0,1-0.45,1-1S90.55,89,90,89z M74,79c-0.55,0-1,0.45-1,1v9h-4V71h10
	v18h-4v-9C75,79.45,74.55,79,74,79z M79,54.86V69h-4v-7c0-0.55-0.45-1-1-1s-1,0.45-1,1v7h-4V46.73L79,54.86z M50,69
	c-2.76,0-5,2.24-5,5v15h-4V61h5h8h5v28h-4V74C55,71.24,52.76,69,50,69z M53,59h-6V48c0-1.65,1.35-3,3-3s3,1.35,3,3V59z M50,31.29
	l9,7.32V59h-4V48c0-2.76-2.24-5-5-5s-5,2.24-5,5v11h-4V38.61L50,31.29z M26,79c-0.55,0-1,0.45-1,1v9h-4V71h10v18h-4v-9
	C27,79.45,26.55,79,26,79z M31,46.73V69h-4v-7c0-0.55-0.45-1-1-1s-1,0.45-1,1v7h-4V54.86L31,46.73z M13,89V48.16l3-9l3,9V89H13z
	 M33,89V28.16l3-9l3,9V89H33z M47,89V74c0-1.65,1.35-3,3-3s3,1.35,3,3v15H47z M61,89V28.16l3-9l3,9V89H61z M81,89V48.16l3-9l3,9V89
	H81z"></path></svg>